{
  "accessors": [
    {
      "bufferView": 1,
      "componentType": 5126,
      "count": 65532,
      "max": [
        1.8577300310134888,
        0.59558600187301636,
        0.65791201591491699
      ],
      "min": [
        1.0542119741439819,
        -0.029374999925494194,
        -0.77406501770019531
      ],
      "type": "VEC3"
    },
    {
      "bufferView": 1,
      "byteOffset": 786384,
      "componentType": 5126,
      "count": 65532,
      "max": [
        0.99999374151229858,
        0.99993449449539185,
        0.6746896505355835
      ],
      "min": [
        -0.99999284744262695,
        -0.97667491436004639,
        -0.99979645013809204
      ],
      "type": "VEC3"
    },
    {
      "bufferView": 0,
      "componentType": 5125,
      "count": 365877,
      "max": [
        65531
      ],
      "min": [
        0
      ],
      "type": "SCALAR"
    },
    {
      "bufferView": 1,
      "byteOffset": 1572768,
      "componentType": 5126,
      "count": 65532,
      "max": [
        1.8131159543991089,
        0.43841099739074707,
        0.78701400756835938
      ],
      "min": [
        1.0019270181655884,
        -0.32529500126838684,
        -0.77417498826980591
      ],
      "type": "VEC3"
    },
    {
      "bufferView": 1,
      "byteOffset": 2359152,
      "componentType": 5126,
      "count": 65532,
      "max": [
        0.99953740835189819,
        0.9968990683555603,
        0.99998778104782104
      ],
      "min": [
        -0.99999940395355225,
        -0.99981826543807983,
        -0.99992555379867554
      ],
      "type": "VEC3"
    },
    {
      "bufferView": 0,
      "byteOffset": 1463508,
      "componentType": 5125,
      "count": 375366,
      "max": [
        65531
      ],
      "min": [
        0
      ],
      "type": "SCALAR"
    },
    {
      "bufferView": 1,
      "byteOffset": 3145536,
      "componentType": 5126,
      "count": 65532,
      "max": [
        1.8545800447463989,
        0.28726300597190857,
        0.77315700054168701
      ],
      "min": [
        1.0308389663696289,
        -0.63440102338790894,
        -0.64253699779510498
      ],
      "type": "VEC3"
    },
    {
      "bufferView": 1,
      "byteOffset": 3931920,
      "componentType": 5126,
      "count": 65532,
      "max": [
        0.99999183416366577,
        0.91037368774414062,
        0.99988961219787598
      ],
      "min": [
        -0.99985283613204956,
        -0.99999988079071045,
        -0.99980628490447998
      ],
      "type": "VEC3"
    },
    {
      "bufferView": 0,
      "byteOffset": 2964972,
      "componentType": 5125,
      "count": 368898,
      "max": [
        65531
      ],
      "min": [
        0
      ],
      "type": "SCALAR"
    },
    {
      "bufferView": 1,
      "byteOffset": 4718304,
      "componentType": 5126,
      "count": 65532,
      "max": [
        1.8924330472946167,
        0.59558600187301636,
        0.77853697538375854
      ],
      "min": [
        0.99159097671508789,
        -0.62945801019668579,
        -0.77399301528930664
      ],
      "type": "VEC3"
    },
    {
      "bufferView": 1,
      "byteOffset": 5504688,
      "componentType": 5126,
      "count": 65532,
      "max": [
        0.99999904632568359,
        0.9994504451751709,
        0.9992336630821228
      ],
      "min": [
        -0.99995499849319458,
        -0.99999785423278809,
        -0.99965757131576538
      ],
      "type": "VEC3"
    },
    {
      "bufferView": 0,
      "byteOffset": 4440564,
      "componentType": 5125,
      "count": 332340,
      "max": [
        65531
      ],
      "min": [
        0
      ],
      "type": "SCALAR"
    },
    {
      "bufferView": 1,
      "byteOffset": 6291072,
      "componentType": 5126,
      "count": 29169,
      "max": [
        1.8924330472946167,
        0.59361201524734497,
        0.78390002250671387
      ],
      "min": [
        1.2473640441894531,
        -0.62216401100158691,
        -0.75546401739120483
      ],
      "type": "VEC3"
    },
    {
      "bufferView": 1,
      "byteOffset": 6641100,
      "componentType": 5126,
      "count": 29169,
      "max": [
        0.99999904632568359,
        0.99983984231948853,
        0.99686259031295776
      ],
      "min": [
        -0.99966317415237427,
        -0.99959337711334229,
        -0.99952799081802368
      ],
      "type": "VEC3"
    },
    {
      "bufferView": 0,
      "byteOffset": 5769924,
      "componentType": 5125,
      "count": 126621,
      "max": [
        29168
      ],
      "min": [
        0
      ],
      "type": "SCALAR"
    },
    {
      "bufferView": 1,
      "byteOffset": 6991128,
      "componentType": 5126,
      "count": 964,
      "max": [
        1.7011840343475342,
        -0.29280099272727966,
        0.20419600605964661
      ],
      "min": [
        1.1831090450286865,
        -0.4415070116519928,
        0.055489998310804367
      ],
      "type": "VEC3"
    },
    {
      "bufferView": 1,
      "byteOffset": 7002696,
      "componentType": 5126,
      "count": 964,
      "max": [
        1,
        1,
        1
      ],
      "min": [
        -1,
        -1,
        -1
      ],
      "type": "VEC3"
    },
    {
      "bufferView": 0,
      "byteOffset": 6276408,
      "componentType": 5125,
      "count": 5760,
      "max": [
        963
      ],
      "min": [
        0
      ],
      "type": "SCALAR"
    }
  ],
  "asset": {
    "extras": {
      "author": "CJ Nowacek (https://sketchfab.com/cjnowacek)",
      "license": "CC-BY-4.0 (http://creativecommons.org/licenses/by/4.0/)",
      "source": "https://sketchfab.com/3d-models/lincoln-sculpt-wip-dc1fda51cab940068494f0c7b57262d9",
      "title": "Lincoln sculpt wip"
    },
    "generator": "Sketchfab-9.62.3",
    "version": "2.0"
  },
  "bufferViews": [
    {
      "buffer": 0,
      "byteLength": 6299448,
      "byteOffset": 0,
      "name": "floatBufferViews",
      "target": 34963
    },
    {
      "buffer": 0,
      "byteLength": 7014264,
      "byteOffset": 6299448,
      "byteStride": 12,
      "name": "floatBufferViews",
      "target": 34962
    }
  ],
  "buffers": [
    {
      "byteLength": 13313712,
      "uri": "scene.bin"
    }
  ],
  "materials": [
    {
      "doubleSided": true,
      "name": "material_0",
      "pbrMetallicRoughness": {
        "baseColorFactor": [
          1,
          1,
          1,
          1
        ],
        "metallicFactor": 0,
        "roughnessFactor": 0.59999999999999998
      }
    }
  ],
  "meshes": [
    {
      "primitives": [
        {
          "attributes": {
            "NORMAL": 1,
            "POSITION": 0
          },
          "indices": 2,
          "material": 0,
          "mode": 4
        }
      ]
    },
    {
      "primitives": [
        {
          "attributes": {
            "NORMAL": 4,
            "POSITION": 3
          },
          "indices": 5,
          "material": 0,
          "mode": 4
        }
      ]
    },
    {
      "primitives": [
        {
          "attributes": {
            "NORMAL": 7,
            "POSITION": 6
          },
          "indices": 8,
          "material": 0,
          "mode": 4
        }
      ]
    },
    {
      "primitives": [
        {
          "attributes": {
            "NORMAL": 10,
            "POSITION": 9
          },
          "indices": 11,
          "material": 0,
          "mode": 4
        }
      ]
    },
    {
      "primitives": [
        {
          "attributes": {
            "NORMAL": 13,
            "POSITION": 12
          },
          "indices": 14,
          "material": 0,
          "mode": 4
        }
      ]
    },
    {
      "primitives": [
        {
          "attributes": {
            "NORMAL": 16,
            "POSITION": 15
          },
          "indices": 17,
          "material": 0,
          "mode": 4
        }
      ]
    }
  ],
  "nodes": [
    {
      "children": [
        1
      ],
      "name": "RootNode (gltf orientation matrix)",
      "rotation": [
        -0.70710678118654746,
        -0,
        -0,
        0.70710678118654757
      ]
    },
    {
      "children": [
        2
      ],
      "name": "RootNode (model correction matrix)"
    },
    {
      "children": [
        3,
        4,
        5,
        6,
        7,
        8
      ],
      "name": "lincoln.obj.cleaner.materialmerger.gles"
    },
    {
      "mesh": 0,
      "name": ""
    },
    {
      "mesh": 1,
      "name": ""
    },
    {
      "mesh": 2,
      "name": ""
    },
    {
      "mesh": 3,
      "name": ""
    },
    {
      "mesh": 4,
      "name": ""
    },
    {
      "mesh": 5,
      "name": ""
    }
  ],
  "scene": 0,
  "scenes": [
    {
      "name": "OSG_Scene",
      "nodes": [
        0
      ]
    }
  ]
}

